# xmcd
#
# Track frame offsets:
#	150
#	21950
#	45652
#	66067
#	86857
#	107852
#	130705
#	152137
#	176902
#	198812
#	225452
#	246335
#	270727
#	296085
#	313827
#
# Disc length: 4422 seconds
#
# Revision: 0
# Processed by: cddbd v1.5.2PL0 Copyright (c) Steve Scherf et al.
# Submitted via: audiograbber 1.83.01
#
DISCID=d911440f
DTITLE=V. A. - The Last Soul Company Disc 2
DYEAR=1900
DGENRE=Blues
TTITLE0=Little Milton - My Dog And Me
TTITLE1=Bobby " Blue " Bland - You Gotta Hurt Before You Heal
TTITLE2=Johnnie Taylor - Still Crazy
TTITLE3=Denise LaSalle - Your Husband Is Cheating On Us
TTITLE4=The Beat Daddys - I'll Always Love You
TTITLE5=Poonanny - Clean Out Your Dresser
TTITLE6=Dorothy Moore and Z.Z. Hill - Please Let Our Good Thing End
TTITLE7=Artie "Bluesboy " White - Man Of The House
TTITLE8=Shirley Brown - Who Is Betty
TTITLE9=Bobby Rush - Hen Pecked
TTITLE10=Tyrone Davis - Never Ever Let Go
TTITLE11=Tonya - I've Been Having An Affair
TTITLE12=Mel Waiters - Woman In Need
TTITLE13=Stan Mosley - Don't Make Me Creep
TTITLE14=Carl Sims - Walk By
EXTD=
EXTT0=
EXTT1=
EXTT2=
EXTT3=
EXTT4=
EXTT5=
EXTT6=
EXTT7=
EXTT8=
EXTT9=
EXTT10=
EXTT11=
EXTT12=
EXTT13=
EXTT14=
PLAYORDER=
